<svg id="Capa_1" enable-background="new 0 0 512 512" height="512" viewBox="0 0 512 512" width="512" xmlns="http://www.w3.org/2000/svg"><g><path d="m177.647 93.005 156.711-.011 48.44 149.068-126.795 92.118-126.795-92.118z" fill="#fdb2bd"/><path d="m243.165 467.529c-16.695-40.86-61.033-48.021-90.607-47.918-20.864.073-36.667 18.908-33.193 39.481 2.601 15.402 11.282 34.061 33.332 52.907h80.482z" fill="#30ca99"/><path d="m268.836 467.529c16.695-40.86 61.033-48.021 90.607-47.918 20.864.073 36.667 18.908 33.193 39.481-2.601 15.402-11.282 34.061-33.332 52.907h-80.482z" fill="#30ca99"/><path d="m233.179 310.405h45.644v201.595h-45.644z" fill="#71d9b8"/><path d="m256.003 0c-43.917 0-79.52 22.839-79.52 76.429 0 5.656.391 11.188 1.164 16.576 5.13 36.437 26.929 65.932 55.475 76.377 7.242 2.658 14.927 4.079 22.88 4.079s15.628-1.422 22.87-4.079c1.102-30.38 22.417-60.235 55.486-76.388.773-5.388 1.164-10.92 1.164-16.565.001-53.59-35.602-76.429-79.519-76.429z" fill="#fdb2bd"/><path d="m233.123 169.382c-28.546-10.446-50.345-39.94-55.475-76.377-4.893-2.39-10.044-4.471-15.422-6.222-50.963-16.565-83.682 10.24-97.259 52.014-13.568 41.764-2.854 82.682 48.12 99.248 5.378 1.751 10.765 3.08 16.122 4.018 36.252 6.377 71.041-5.244 89.791-29.175 4.759-6.068 8.489-12.929 10.941-20.49 2.45-7.563 3.47-15.3 3.182-23.016z" fill="#7ce0fd"/><path d="m278.823 310.405h-45.644v91.298c1.632-.876 3.267-1.793 4.908-2.798 11.03-6.763 24.803-6.762 35.833.001 1.639 1.005 3.273 1.921 4.903 2.796z" fill="#30ca99"/><path d="m256.003 239.785c-4.306-6.408-9.673-12.074-16.112-16.751-6.428-4.677-13.475-8.035-20.892-10.147-18.749 23.931-53.538 35.552-89.791 29.175-3.781 3.915-7.355 8.159-10.683 12.733-31.503 43.35-16.122 82.755 19.409 108.571s77.758 28.268 109.261-15.092c3.327-4.574 6.263-9.292 8.808-14.093 17.266-32.503 16.957-69.167 0-94.396z" fill="#c6a7ef"/><path d="m447.029 138.796c-13.567-41.774-46.286-68.579-97.259-52.014-5.378 1.741-10.518 3.832-15.411 6.212-33.069 16.153-54.383 46.008-55.486 76.388-.288 7.706.731 15.453 3.194 23.014 2.452 7.561 6.181 14.423 10.941 20.49 29.237-8.334 64.211 2.71 89.791 29.175 5.357-.938 10.745-2.266 16.122-4.018 50.962-16.564 61.686-57.483 48.108-99.247z" fill="#fdb09a"/><path d="m393.481 254.794c-3.328-4.574-6.902-8.818-10.683-12.733-25.579-26.465-60.554-37.509-89.791-29.175-7.417 2.112-14.464 5.47-20.902 10.147-6.439 4.677-11.806 10.343-16.102 16.751 16.957 25.229 17.266 61.893 0 94.395 2.555 4.811 5.481 9.519 8.808 14.093 31.493 43.36 73.72 40.908 109.251 15.092 35.531-25.815 50.911-65.219 19.419-108.57z" fill="#fd8b9b"/><g><path d="m256.001 181.188c-4.268 0-7.726-3.459-7.726-7.726v-101.719c0-4.267 3.459-7.726 7.726-7.726 4.268 0 7.726 3.459 7.726 7.726v101.719c0 4.267-3.458 7.726-7.726 7.726z" fill="#fd8b9b"/></g><g><path d="m229.942 200.125c-.792 0-1.597-.122-2.389-.38l-96.741-31.433c-4.058-1.318-6.28-5.677-4.961-9.735s5.682-6.279 9.735-4.961l96.741 31.433c4.058 1.318 6.28 5.677 4.961 9.735-1.061 3.265-4.09 5.341-7.346 5.341z" fill="#2ecdf9"/></g><g><path d="m180.099 313.053c-1.575 0-3.164-.48-4.535-1.476-3.453-2.508-4.217-7.34-1.709-10.792l59.79-82.293c2.508-3.453 7.341-4.216 10.792-1.709 3.453 2.508 4.217 7.34 1.709 10.792l-59.79 82.293c-1.512 2.081-3.869 3.185-6.257 3.185z" fill="#af88e1"/></g><g><path d="m331.902 313.053c-2.389 0-4.744-1.105-6.257-3.186l-59.789-82.293c-2.508-3.452-1.743-8.284 1.709-10.792 3.453-2.507 8.284-1.742 10.792 1.71l59.789 82.293c2.508 3.452 1.743 8.284-1.709 10.792-1.371.997-2.96 1.476-4.535 1.476z" fill="#e75b70"/></g><g><path d="m282.06 200.125c-3.257 0-6.286-2.075-7.346-5.341-1.319-4.058.902-8.417 4.961-9.735l96.74-31.433c4.053-1.318 8.418.901 9.735 4.961 1.319 4.058-.902 8.417-4.961 9.735l-96.74 31.433c-.792.258-1.597.38-2.389.38z" fill="#fd8c71"/></g><path d="m213.036 73.458c0-28.293 11.299-53.944 29.624-72.699-37.561 4.318-66.177 27.632-66.177 75.67 0 5.656.391 11.188 1.164 16.576 5.13 36.437 26.929 65.932 55.475 76.377 7.242 2.658 14.927 4.079 22.88 4.079 7.528 0 14.802-1.288 21.7-3.678-37.936-15.524-64.666-52.799-64.666-96.325z" fill="#fd8b9b"/><path d="m121.553 202.356c-26.908-8.743-47.812-27.415-59.987-50.64-7.501 37.057 5.829 71.476 51.517 86.321 5.379 1.748 10.761 3.085 16.124 4.015 36.239 6.381 71.026-5.237 89.782-29.158 4.766-6.066 8.493-12.936 10.95-20.5 2.326-7.159 3.349-14.475 3.207-21.775-26.486 31.284-70.198 45.187-111.593 31.737z" fill="#2ecdf9"/><path d="m215.873 329.193c-16.63 22.89-40.848 37-66.698 41.402 32.925 18.585 69.779 16.543 98.016-22.321 3.324-4.576 6.259-9.281 8.801-14.094 17.267-32.494 16.968-69.168.013-94.398-4.297-6.407-9.679-12.074-16.113-16.749-6.09-4.425-12.732-7.658-19.718-9.779 21.567 34.858 21.282 80.726-4.301 115.939z" fill="#af88e1"/><circle cx="256.001" cy="200.865" fill="#fae09d" r="79.522"/><path d="m282.778 270.763c-43.247 0-78.305-35.058-78.305-78.305 0-31.285 18.352-58.274 44.873-70.817-40.802 3.384-72.867 37.549-72.867 79.224 0 43.919 35.603 79.522 79.522 79.522 14.542 0 28.16-3.922 39.888-10.738-4.265.719-8.641 1.114-13.111 1.114z" fill="#fdcb71"/><g><g><path d="m207.048 212.027c-4.268 0-7.726-3.459-7.726-7.726v-9.407c0-4.267 3.459-7.726 7.726-7.726s7.726 3.459 7.726 7.726v9.407c.001 4.267-3.458 7.726-7.726 7.726z" fill="#303646"/></g><g><path d="m304.954 212.027c-4.268 0-7.726-3.459-7.726-7.726v-9.407c0-4.267 3.459-7.726 7.726-7.726s7.726 3.459 7.726 7.726v9.407c0 4.267-3.459 7.726-7.726 7.726z" fill="#303646"/></g><g><path d="m256.001 217.626c-7.18 0-14.008-3.109-18.731-8.53-2.804-3.217-2.468-8.098.749-10.901 3.216-2.803 8.098-2.468 10.9.749 1.789 2.052 4.369 3.229 7.081 3.229 2.711 0 5.292-1.177 7.08-3.229 2.802-3.217 7.684-3.553 10.9-.749 3.217 2.803 3.553 7.684.749 10.901-4.721 5.421-11.548 8.53-18.728 8.53z" fill="#303646"/></g></g></g></svg>